<svg xmlns="http://www.w3.org/2000/svg" version="1.1" xmlns:xlink="http://www.w3.org/1999/xlink" xmlns:svgjs="http://svgjs.dev/svgjs" width="1000" height="462" viewBox="0 0 1000 462"><g transform="matrix(1,0,0,1,-0.6055209027641126,-0.10365433514377287)"><svg viewBox="0 0 396 183" data-background-color="#ffffff" preserveAspectRatio="xMidYMid meet" height="462" width="1000" xmlns="http://www.w3.org/2000/svg" xmlns:xlink="http://www.w3.org/1999/xlink"><g id="tight-bounds" transform="matrix(1,0,0,1,0.24021372250547302,0.041057885998512234)"><svg viewBox="0 0 395.52 182.91788422800298" height="182.91788422800298" width="395.52"><g><svg viewBox="0 0 395.52 182.91788422800298" height="182.91788422800298" width="395.52"><g transform="matrix(1,0,0,1,0,120.14702463117186)"><svg viewBox="0 0 395.52 62.770859596831116" height="62.770859596831116" width="395.52"><g id="textblocktransform"><svg viewBox="0 0 395.52 62.770859596831116" height="62.770859596831116" width="395.52" id="textblock"><g><svg viewBox="0 0 395.52 62.770859596831116" height="62.770859596831116" width="395.52"><g transform="matrix(1,0,0,1,0,0)"><svg width="395.52" viewBox="1.0782999992370605 -33.08197784423828 277.5928955078125 44.05529022216797" height="62.770859596831116" data-palette-color="#e65728"><path d="M22.307-8.828c1.999 0.24 3.626 0.98 4.882 2.218 1.25 1.246 2.02 2.913 2.31 5v0c0.408 2.938-0.243 5.324-1.953 7.157-1.711 1.833-4.335 2.996-7.875 3.488v0l-13.945 1.938-4.648-33.428 13.421-1.866c3.447-0.479 6.223-0.091 8.33 1.164 2.113 1.254 3.362 3.271 3.749 6.052v0c0.251 1.803-0.003 3.416-0.761 4.84-0.751 1.424-1.921 2.569-3.51 3.437zM5.369-19.77l1.615 11.618 9.013-1.253c2.496-0.347 4.314-1.115 5.455-2.303 1.141-1.188 1.577-2.747 1.309-4.675v0c-0.528-3.797-3.321-5.344-8.379-4.64v0zM18.846 5.858c2.621-0.364 4.489-1.115 5.603-2.253 1.114-1.138 1.528-2.733 1.243-4.787v0c-0.571-4.107-3.415-5.805-8.533-5.093v0l-9.726 1.352 1.687 12.133zM66.577 3.919l-3.95 0.397-4.589-8.252-17.521 1.761-2.855 9.001-3.999 0.402 11.39-35.065 3.383-0.34zM47.229-23.483l-5.654 17.935 14.765-1.484zM75.254 3.251l-3.918 0.309-2.655-33.645 3.918-0.31zM83.263 2.777l-1.782-33.703 11.334-0.599c5.386-0.285 9.63 0.953 12.734 3.712 3.103 2.76 4.798 6.833 5.082 12.219v0c0.285 5.386-0.97 9.625-3.763 12.716-2.794 3.085-6.884 4.77-12.27 5.056v0zM87.011-0.776l7.17-0.379c8.734-0.462 12.863-5.203 12.386-14.224v0c-0.475-8.987-5.08-13.25-13.815-12.788v0l-7.17 0.379zM136.485-32.817l4.459-0.074-12.975 18.026 0.262 15.938-3.919 0.065-0.263-15.988-13.551-17.54 4.55-0.074 10.958 14.371zM157.353-16.521l11.969 0.126-0.163 15.609c-1.347 0.686-3.1 1.234-5.258 1.645-2.164 0.404-4.346 0.595-6.546 0.571v0c-3.353-0.035-6.232-0.752-8.638-2.15-2.412-1.392-4.251-3.388-5.518-5.988-1.266-2.6-1.88-5.703-1.842-9.31v0c0.037-3.573 0.71-6.646 2.016-9.219 1.3-2.573 3.154-4.534 5.562-5.883 2.408-1.342 5.238-1.995 8.491-1.961v0c2.367 0.025 4.536 0.404 6.509 1.139 1.966 0.741 3.644 1.822 5.036 3.242v0l-1.512 2.995c-1.619-1.417-3.215-2.437-4.788-3.061-1.574-0.623-3.334-0.945-5.28-0.965v0c-3.793-0.04-6.726 1.126-8.797 3.498-2.065 2.372-3.121 5.791-3.168 10.258v0c-0.048 4.566 0.952 8.047 3.001 10.442 2.048 2.402 5.069 3.623 9.062 3.665v0c2.9 0.03 5.601-0.371 8.103-1.206v0l0.108-10.299-8.379-0.088zM197.83-8.52l5.362 11.272-4.295-0.2-5.241-11.075c-0.639-1.338-1.416-2.275-2.332-2.812-0.922-0.543-2.196-0.853-3.821-0.928v0l-6.314-0.294-0.662 14.255-3.876-0.18 1.567-33.714 13.875 0.645c3.663 0.17 6.422 1.113 8.278 2.828 1.856 1.715 2.71 4.15 2.563 7.307v0c-0.122 2.617-0.963 4.697-2.522 6.239-1.56 1.536-3.718 2.45-6.474 2.742v0c0.847 0.293 1.583 0.758 2.207 1.394 0.624 0.636 1.186 1.477 1.685 2.521zM181.34-15.803l9.66 0.449c2.617 0.122 4.597-0.33 5.939-1.356 1.342-1.025 2.065-2.637 2.167-4.834v0c0.101-2.171-0.463-3.812-1.693-4.924-1.223-1.111-3.16-1.729-5.81-1.852v0l-9.66-0.449zM238.386 5.772l-3.956-0.335-2.996-8.955-17.547-1.484-4.458 8.324-4.006-0.339 17.632-32.379 3.388 0.287zM224.396-24.716l-8.85 16.593 14.787 1.251zM259.993-0.959l15.492-22.761 3.186 0.386-4.062 33.505-3.563-0.432 3.195-25.944-13.391 19.309-2.75-0.334-8.452-21.765-3.083 25.766-3.614-0.438 4.062-33.504 3.236 0.392z" opacity="1" transform="matrix(1,0,0,1,0,0)" fill="#e65728" class="undefined-text-0" data-fill-palette-color="primary" id="text-0"></path></svg></g></svg></g></svg></g></svg></g><g transform="matrix(1,0,0,1,140.6306714094341,0)"><svg viewBox="0 0 114.25865718113182 101.56325082767273" height="101.56325082767273" width="114.25865718113182"><g><svg xmlns="http://www.w3.org/2000/svg" xmlns:xlink="http://www.w3.org/1999/xlink" version="1.0" x="0" y="0" viewBox="5 10 90 80" enable-background="new 0 0 100 100" xml:space="preserve" height="101.56325082767273" width="114.25865718113182" class="icon-icon-0" data-fill-palette-color="accent" id="icon-0"><path d="M95 30H78.1l-10-20H31.9l-10 20H5v60h90V30zM85 80H15V40h13.1l10-20h23.8l10 20H85V80z" fill="#e65728" data-fill-palette-color="accent"></path><path d="M50 35c-11 0-20 9-20 20s9 20 20 20 20-9 20-20S61 35 50 35zM50 65c-5.5 0-10-4.5-10-10s4.5-10 10-10 10 4.5 10 10S55.5 65 50 65z" fill="#e65728" data-fill-palette-color="accent"></path></svg></g></svg></g><g></g></svg></g><defs></defs></svg><rect width="395.52" height="182.91788422800298" fill="none" stroke="none" visibility="hidden"></rect></g></svg></g></svg>